<svg width="32" height="32" viewBox="0 0 32 32" xmlns="http://www.w3.org/2000/svg">
  <!-- My Documents icon -->
  <defs>
    <linearGradient id="folderGradient" x1="0%" y1="0%" x2="100%" y2="100%">
      <stop offset="0%" style="stop-color:#ffff80;stop-opacity:1" />
      <stop offset="100%" style="stop-color:#c0c000;stop-opacity:1" />
    </linearGradient>
  </defs>
  
  <!-- Folder back -->
  <path d="M 4 10 L 28 10 L 28 26 L 4 26 Z" fill="url(#folderGradient)" stroke="#000000" stroke-width="1"/>
  
  <!-- Folder tab -->
  <path d="M 4 10 L 4 6 L 14 6 L 16 8 L 20 8 L 20 10" fill="url(#folderGradient)" stroke="#000000" stroke-width="1"/>
  
  <!-- Folder front -->
  <path d="M 6 12 L 26 12 L 26 24 L 6 24 Z" fill="#ffff60" stroke="#000000" stroke-width="1"/>
  
  <!-- Documents inside -->
  <rect x="8" y="14" width="8" height="6" fill="#ffffff" stroke="#000000" stroke-width="1"/>
  <rect x="9" y="15" width="6" height="1" fill="#000000"/>
  <rect x="9" y="16" width="6" height="1" fill="#000000"/>
  <rect x="9" y="17" width="4" height="1" fill="#000000"/>
  
  <!-- 3D effect -->
  <line x1="4" y1="10" x2="4" y2="26" stroke="#ffffff" stroke-width="1"/>
  <line x1="4" y1="10" x2="28" y2="10" stroke="#ffffff" stroke-width="1"/>
  <line x1="28" y1="10" x2="28" y2="26" stroke="#808080" stroke-width="1"/>
  <line x1="4" y1="26" x2="28" y2="26" stroke="#808080" stroke-width="1"/>
  
  <!-- Tab 3D effect -->
  <line x1="4" y1="6" x2="14" y2="6" stroke="#ffffff" stroke-width="1"/>
  <line x1="4" y1="6" x2="4" y2="10" stroke="#ffffff" stroke-width="1"/>
  <line x1="16" y1="8" x2="20" y2="8" stroke="#ffffff" stroke-width="1"/>
  <line x1="20" y1="8" x2="20" y2="10" stroke="#808080" stroke-width="1"/>
</svg>
